<?xml version="1.0" encoding="UTF-8"?><svg xmlns="http://www.w3.org/2000/svg" xmlns:xlink="http://www.w3.org/1999/xlink" height="438.0" preserveAspectRatio="xMidYMid meet" version="1.0" viewBox="0.0 0.0 480.0 438.0" width="480.0" zoomAndPan="magnify"><linearGradient gradientUnits="userSpaceOnUse" id="a" x1="0" x2="480" xlink:actuate="onLoad" xlink:show="other" xlink:type="simple" xmlns:xlink="http://www.w3.org/1999/xlink" y1="219" y2="219"><stop offset=".085" stop-color="#e5b300"/><stop offset=".138" stop-color="#eac217"/><stop offset=".29" stop-color="#f9ea56"/><stop offset=".362" stop-color="#fffa6e"/><stop offset=".613" stop-color="#e5b300"/><stop offset=".668" stop-color="#e6b604"/><stop offset=".727" stop-color="#e9be11"/><stop offset=".789" stop-color="#eecc27"/><stop offset=".852" stop-color="#f5e045"/><stop offset=".915" stop-color="#fef96c"/><stop offset=".919" stop-color="#fffa6e"/></linearGradient><path d="M336.5,245.4l6.7-6.7h-35.8v-7.9h35.8l-6.7-6.7h9.1l10.7,10.7l-10.7,10.7h-9.1V245.4z M356.2,199.3h-35.8 l6.7-6.7H318l-10.7,10.7L318,214h9.1l-6.7-6.7h35.8V199.3z M172.6,230.8h-35.8l6.7-6.7h-9.1l-10.7,10.7l10.7,10.7h9.1l-6.7-6.7h35.8 V230.8z M123.8,207.2h35.8l-6.7,6.7h9.1l10.7-10.7L162,192.5h-9.1l6.7,6.7h-35.8V207.2z M94.4,56.4C94.4,25.3,119.7,0,150.8,0 s56.4,25.3,56.4,56.4s-25.3,56.4-56.4,56.4S94.4,87.5,94.4,56.4z M102.3,56.4c0,26.8,21.8,48.5,48.5,48.5s48.5-21.8,48.5-48.5 c0-26.8-21.8-48.5-48.5-48.5S102.3,29.6,102.3,56.4z M272.8,56.4c0-31.1,25.3-56.4,56.4-56.4s56.4,25.3,56.4,56.4 s-25.3,56.4-56.4,56.4S272.8,87.5,272.8,56.4z M280.7,56.4c0,26.8,21.8,48.5,48.5,48.5s48.5-21.8,48.5-48.5 c0-26.8-21.8-48.5-48.5-48.5S280.7,29.6,280.7,56.4z M207.2,381.6c0,31.1-25.3,56.4-56.4,56.4s-56.4-25.3-56.4-56.4 s25.3-56.4,56.4-56.4S207.2,350.5,207.2,381.6z M199.3,381.6c0-26.8-21.8-48.5-48.5-48.5s-48.5,21.8-48.5,48.5 c0,26.8,21.8,48.5,48.5,48.5S199.3,408.4,199.3,381.6z M385.6,381.6c0,31.1-25.3,56.4-56.4,56.4s-56.4-25.3-56.4-56.4 s25.3-56.4,56.4-56.4S385.6,350.5,385.6,381.6z M377.7,381.6c0-26.8-21.8-48.5-48.5-48.5s-48.5,21.8-48.5,48.5 c0,26.8,21.8,48.5,48.5,48.5S377.7,408.4,377.7,381.6z M240,275.4c-31.1,0-56.4-25.3-56.4-56.4s25.3-56.4,56.4-56.4 s56.4,25.3,56.4,56.4S271.1,275.4,240,275.4z M288.5,219c0-26.8-21.8-48.5-48.5-48.5s-48.5,21.8-48.5,48.5 c0,26.8,21.8,48.5,48.5,48.5S288.5,245.8,288.5,219z M56.4,275.4C25.3,275.4,0,250.1,0,219s25.3-56.4,56.4-56.4s56.4,25.3,56.4,56.4 S87.5,275.4,56.4,275.4z M104.9,219c0-26.8-21.8-48.5-48.5-48.5S7.9,192.3,7.9,219c0,26.8,21.8,48.5,48.5,48.5 S104.9,245.8,104.9,219z M480,219c0,31.1-25.3,56.4-56.4,56.4s-56.4-25.3-56.4-56.4s25.3-56.4,56.4-56.4S480,187.9,480,219z M472.1,219c0-26.8-21.8-48.5-48.5-48.5s-48.5,21.8-48.5,48.5c0,26.8,21.8,48.5,48.5,48.5S472.1,245.8,472.1,219z M169.3,134.8 l9,3.3l-3.8-8.2l-14.2-5.2l-5.2,14.2l3.8,8.2l3.3-9l15.1,32.5l7.1-3.3L169.3,134.8z M185.2,113l15.1,32.5l-9-3.3l3.8,8.2l14.2,5.2 l5.2-14.2l-3.8-8.2l-3.3,9l-15.1-32.5L185.2,113z M314.2,123L299,155.5l-3.3-9l-3.8,8.2l5.2,14.2l14.2-5.2l3.8-8.2l-9,3.3l15.1-32.5 L314.2,123z M272.1,157.3l15.1-32.5l3.3,9l3.8-8.2l-5.2-14.2l-14.2,5.2l-3.8,8.2l9-3.3L265,153.9L272.1,157.3z M303.6,308.7 l14.2,5.2l5.2-14.2l-3.8-8.2l-3.3,9L300.7,268l-7.1,3.3l15.1,32.5l-9-3.3L303.6,308.7z M292.8,325.5L277.7,293l9,3.3l-3.8-8.2 l-14.2-5.2l-5.2,14.2l3.8,8.2l3.3-9l15.1,32.5L292.8,325.5z M163.8,315.6l15.1-32.5l3.3,9l3.8-8.2l-5.2-14.2l-14.2,5.2l-3.8,8.2 l9-3.3l-15.1,32.5L163.8,315.6z M190.7,313.8l-3.3-9l-3.8,8.2l5.2,14.2L203,322l3.8-8.2l-9,3.3l15.1-32.5l-7.1-3.3L190.7,313.8z" fill="url(#a)"/></svg>